<svg width="22" height="19" viewBox="0 0 22 19" fill="none" xmlns="http://www.w3.org/2000/svg">
<path d="M15.375 16.4263H4.875C4.17881 16.4263 3.51113 16.1497 3.01884 15.6574C2.52656 15.1651 2.25 14.4974 2.25 13.8013V6.80125C2.25 6.56919 2.15781 6.34663 1.99372 6.18254C1.82962 6.01844 1.60706 5.92625 1.375 5.92625C1.14294 5.92625 0.920376 6.01844 0.756282 6.18254C0.592187 6.34663 0.5 6.56919 0.5 6.80125L0.5 13.8013C0.5 14.9616 0.960936 16.0744 1.78141 16.8948C2.60188 17.7153 3.71468 18.1763 4.875 18.1763H15.375C15.6071 18.1763 15.8296 18.0841 15.9937 17.92C16.1578 17.7559 16.25 17.5333 16.25 17.3013C16.25 17.0692 16.1578 16.8466 15.9937 16.6825C15.8296 16.5184 15.6071 16.4263 15.375 16.4263ZM18.875 0.676254H6.625C5.92881 0.676254 5.26113 0.952816 4.76884 1.4451C4.27656 1.93738 4 2.60506 4 3.30125V12.0513C4 12.7474 4.27656 13.4151 4.76884 13.9074C5.26113 14.3997 5.92881 14.6763 6.625 14.6763H18.875C19.5712 14.6763 20.2389 14.3997 20.7312 13.9074C21.2234 13.4151 21.5 12.7474 21.5 12.0513V3.30125C21.5 2.60506 21.2234 1.93738 20.7312 1.4451C20.2389 0.952816 19.5712 0.676254 18.875 0.676254ZM18.5163 2.42625L13.3713 7.57125C13.2899 7.65327 13.1931 7.71836 13.0865 7.76278C12.9799 7.80721 12.8655 7.83008 12.75 7.83008C12.6345 7.83008 12.5201 7.80721 12.4135 7.76278C12.3069 7.71836 12.2101 7.65327 12.1287 7.57125L6.98375 2.42625H18.5163ZM19.75 12.0513C19.75 12.2833 19.6578 12.5059 19.4937 12.67C19.3296 12.8341 19.1071 12.9263 18.875 12.9263H6.625C6.39294 12.9263 6.17038 12.8341 6.00628 12.67C5.84219 12.5059 5.75 12.2833 5.75 12.0513V3.625L10.895 8.77C11.3872 9.26158 12.0544 9.53769 12.75 9.53769C13.4456 9.53769 14.1128 9.26158 14.605 8.77L19.75 3.625V12.0513Z" fill="white"/>
</svg>
